<?xml version="1.0" standalone="no"?><!DOCTYPE svg PUBLIC "-//W3C//DTD SVG 1.1//EN" "http://www.w3.org/Graphics/SVG/1.1/DTD/svg11.dtd"><svg t="1558513813114" class="icon" style="" viewBox="0 0 1024 1024" version="1.1" xmlns="http://www.w3.org/2000/svg" p-id="12654" xmlns:xlink="http://www.w3.org/1999/xlink" width="200" height="200"><defs><style type="text/css"></style></defs><path d="M142.222222 56.888889h739.555556a85.333333 85.333333 0 0 1 85.333333 85.333333v739.555556a85.333333 85.333333 0 0 1-85.333333 85.333333H142.222222a85.333333 85.333333 0 0 1-85.333333-85.333333V142.222222a85.333333 85.333333 0 0 1 85.333333-85.333333z" fill="#0BCCA8" p-id="12655"></path><path d="M656.469333 411.591111L791.438222 682.666667H227.555556c68.394667-62.677333 212.636444-196.764444 212.636444-196.764445l57.272889 105.429334 159.004444-179.740445zM310.755556 456.064c-29.824 0-53.987556-25.656889-53.987556-57.358222 0-31.672889 24.163556-57.372444 53.987556-57.372445 29.752889 0 53.930667 25.713778 53.930666 57.372445 0.014222 31.701333-24.177778 57.358222-53.930666 57.358222z" fill="#FFFFFF" p-id="12656"></path></svg>